# AST/ASF file generated using VICON BodyLanguage
# -----------------------------------------------
:version 1.10
:name VICON
:units
  mass 1.0
  length 0.45
  angle deg
:documentation
   .ast/.asf automatically generated from VICON data using
   VICON BodyBuilder and BodyLanguage model FoxedUp or BRILLIANT.MOD
:root
   order TX TY TZ RX RY RZ
   axis XYZ
   position 0 0 0  
   orientation 0 0 0 
:bonedata
  begin
     id 1 
     name lhipjoint
     direction 0.561145 -0.797705 0.220866 
     length 2.46425 
     axis 0 0 0  XYZ
  end
  begin
     id 2 
     name lfemur
     direction 0.34202 -0.939693 0  
     length 7.95556  
     axis 0 0 20  XYZ
    dof rx ry rz
    limits (-160.0 20.0)
           (-70.0 70.0)
           (-60.0 70.0)
  end
  begin
     id 3 
     name ltibia
     direction 0.34202 -0.939693 0   
     length 7.9832   
     axis 0 0 20   XYZ
    dof rx
    limits (-10.0 170.0)
  end
  begin
     id 4 
     name lfoot
     direction 0.0723927 -0.198897 0.977343   
     length 2.23085   
     axis -90 7.62852e-016 20   XYZ
    dof rx rz
    limits (-45.0 90.0)
           (-70.0 20.0)
  end
  begin
     id 5 
     name ltoes
     direction 1.53826e-011 -4.21988e-011 1   
     length 1.12127   
     axis -90 7.62852e-016 20   XYZ
    dof rx
    limits (-90.0 20.0)
  end
  begin
     id 6 
     name rhipjoint
     direction -0.610499 -0.763299 0.21134   
     length 2.57533  
     axis 0 0 0  XYZ 
  end
  begin
     id 7 
     name rfemur
     direction -0.34202 -0.939693 0   
     length 8.65257   
     axis 0 0 -20   XYZ
    dof rx ry rz
    limits (-160.0 20.0)
           (-70.0 70.0)
           (-70.0 60.0)
  end
  begin
     id 8 
     name rtibia
     direction -0.342021 -0.939692 0   
     length 7.37807   
     axis 0 0 -20   XYZ
    dof rx
    limits (-10.0 170.0)
 end
 begin
     id 9 
     name rfoot
     direction -0.0239304 -0.0543852 0.998233   
     length 1.87018  
     axis -90 -7.62852e-016 -20   XYZ
    dof rx rz
    limits (-45.0 90.0)
           (-20.0 70.0)
  end
  begin
     id 10 
     name rtoes
     direction -1.53584e-011 -4.2242e-011 1   
     length 0.951568   
     axis -90 -7.62852e-016 -20   XYZ
    dof rx
    limits (-90.0 20.0)
  end
  begin
     id 11 
     name lowerback
     direction 0.00322089 0.999033 0.0438587   
     length 2.07568   
     axis 0 0 0   XYZ
    dof rx ry rz
    limits (-20.0 45.0)
           (-30.0 30.0)
           (-30.0 30.0)
  end
  begin
     id 12 
     name upperback
     direction -0.00321932 0.999732 -0.0229403   
     length 2.06253   
     axis 0 0 0   XYZ
    dof rx ry rz
    limits (-20.0 45.0)
           (-30.0 30.0)
           (-30.0 30.0)
  end
  begin
     id 13 
     name thorax
     direction -0.00537537 0.998955 -0.0453918   
     length 2.06975   
     axis 0 0 0   XYZ
    dof rx ry rz
    limits (-20.0 45.0)
           (-30.0 30.0)
           (-30.0 30.0)
  end
  begin
     id 14 
     name lowerneck
     direction -0.00013604 0.994111 0.108363   
     length 1.50836   
     axis 0 0 0   XYZ
    dof rx ry rz
    limits (-20.0 45.0)
           (-30.0 30.0)
           (-30.0 30.0)
  end
  begin
     id 15 
     name upperneck
     direction 0.0397262 0.983859 -0.174482   
     length 1.53037   
     axis 0 0 0   XYZ
    dof rx ry rz
    limits (-20.0 45.0)
           (-30.0 30.0)
           (-30.0 30.0)
  end
  begin
     id 16
     name head
     direction 0.0109991 0.997082 -0.0755378  
     length 1.56928  
     axis 0 0 0   XYZ
    dof rx ry rz
    limits (-20.0 45.0)
           (-30.0 30.0)
           (-30.0 30.0)
  end
  begin
     id 17 
     name lclavicle
     direction 0.964749 0.254 -0.068874  
     length 3.26503  
     axis 0 0 0   XYZ
    dof ry rz
    limits (-20.0 10.0)
           (0.0 20.0)
  end
  begin
     id 18 
     name lhumerus
     direction 1 -4.48941e-011 -2.05079e-027   
     length 5.68236   
     axis 180 -30 -90   XYZ
    dof rx ry rz
    limits (-60.0 90.0)
           (-90.0 90.0)
           (-90.0 90.0)
  end
  begin
     id 19
     name lradius
     direction 1 -4.48956e-011 6.2882e-027   
     length 3.17112   
     axis 180 -30 -90   XYZ
    dof rx
    limits (-10.0 170.0)
  end
  begin
     id 20
     name lwrist
     direction 1 -4.49014e-011 1.73219e-026   
     length 1.58556   
     axis -1.04724e-014 90 90   XYZ
    dof ry
    limits (-180.0 0.0)
 end
  begin
     id 21 
     name lhand
     direction 1 -4.49312e-011 3.46438e-026   
     length 0.632691   
     axis -2.21057e-014 90 90   XYZ
    dof rx rz
    limits (-90.0 90.0)
           (-45.0 45.0)
  end
  begin
     id 22 
     name lfingers
     direction 1 -4.48894e-011 6.92876e-026   
     length 0.510091   
     axis -4.42114e-014 90 90   XYZ
    dof rx
    limits (0.0 90.0)
  end
  begin
     id 23
     name lthumb
     direction 0.707107 -6.34705e-011 0.707107   
     length 0.732392   
     axis -90 45 2.85299e-015   XYZ
    dof rx rz
    limits (-45.0 45.0)
           (-45.0 45.0)
  end
  begin
     id 24 
     name rclavicle
     direction -0.954374 0.280496 -0.102435   
     length 3.25419  
     axis 0 0 0   XYZ 
    dof ry rz
    limits (-10.0 20.0)
           (-20.0 0.0)
  end
  begin
     id 25 
     name rhumerus
     direction -1 -4.48994e-011 -1.07204e-017  
     length 5.8712   
     axis 180 30 90   XYZ
    dof rx ry rz
    limits (-90.0 60.0)
           (-90.0 90.0)
           (-90.0 90.0)
  end
  begin
     id 26 
     name rradius
     direction -1 -4.48972e-011 5.89292e-027   
     length 3.37589   
     axis 180 30 90   XYZ
    dof rx
    limits (-10.0 170.0)
  end
  begin
     id 27 
     name rwrist
     direction -1 -4.48942e-011 1.73219e-026   
     length 1.68794   
     axis -1.04724e-014 -90 -90   XYZ
    dof ry
    limits (-180.0 0.0)
  end
  begin
     id 28
     name rhand
     direction -1 -4.48514e-011 3.46438e-026   
     length 0.603257   
     axis -2.21057e-014 -90 -90   XYZ
    dof rx rz
    limits (-90.0 90.0)
           (-45.0 45.0)
  end
  begin
     id 29
     name rfingers
     direction -1 -4.50028e-011 6.92876e-026   
     length 0.486362   
     axis -4.42114e-014 -90 -90   XYZ
    dof rx
    limits (0.0 90.0)
  end
  begin
     id 30
     name rthumb
     direction -0.707107 -6.34926e-011 0.707107   
     length 0.698321   
     axis -90 -45 -2.85299e-015   XYZ
    dof rx rz
    limits (-45.0 45.0)
           (-45.0 45.0)
  end
:hierarchy
  begin
    root lhipjoint rhipjoint lowerback
    lhipjoint lfemur
    lfemur ltibia
    ltibia lfoot
    lfoot ltoes
    rhipjoint rfemur
    rfemur rtibia
    rtibia rfoot
    rfoot rtoes
    lowerback upperback
    upperback thorax
    thorax lowerneck lclavicle rclavicle
    lowerneck upperneck
    upperneck head
    lclavicle lhumerus
    lhumerus lradius
    lradius lwrist
    lwrist lhand lthumb
    lhand lfingers
    rclavicle rhumerus
    rhumerus rradius
    rradius rwrist
    rwrist rhand rthumb
    rhand rfingers
  end

#!OML:ASF I:\Segmentation\Patient Classification 1\Patient 1\Session 1\Patient1.ASF
:FULLY-SPECIFIED
:DEGREES
1199
root 19.9052 16.0974 -0.433925 -655.693 -91.6152 294.594
lowerback 11.8498 1.3178 -1.26264
upperback 12.9279 0.823466 -0.832945
thorax 7.07115 -0.0102508 -0.266124
lowerneck -15.9142 -2.84974 -4.84868
upperneck -0.0641324 -3.21705 3.51845
head 2.94719 -1.54148 1.79199
rclavicle -3.13086e-015 -1.47101e-014
rhumerus -42.1447 29.3814 -92.9701
rradius 57.9619
rwrist -16.5313
rhand -17.4213 33.1261
rfingers 7.12502
rthumb 8.82884 3.33082
lclavicle -3.13086e-015 -1.47101e-014
lhumerus -39.0953 -30.2283 91.7876
lradius 58.4575
lwrist 38.4102
lhand -3.86753 28.3697
lfingers 7.12502
lthumb 21.8812 57.1524
rfemur -44.163 -0.116726 9.83951
rtibia 59.9902
rfoot 2.5222 3.33213
rtoes 47.9092
lfemur -45.9249 12.6177 -22.0851
ltibia 65.6352
lfoot -15.8688 -0.914034
ltoes -10.5299
1200
root 19.9256 16.0908 -0.437743 -656.923 -91.6016 295.424
lowerback 11.868 1.3102 -1.20775
upperback 12.9011 0.819006 -0.837245
thorax 7.03188 -0.00681363 -0.300926
lowerneck -16.2527 -2.86043 -4.87748
upperneck 0.482246 -3.20635 3.48064
head 3.20245 -1.53246 1.78607
rclavicle 2.48481e-016 9.74045e-015
rhumerus -42.241 29.3645 -93.0364
rradius 58.0215
rwrist -16.7192
rhand -17.2253 33.0626
rfingers 7.12502
rthumb 9.01794 3.27531
lclavicle 2.48481e-016 9.74045e-015
lhumerus -39.2097 -30.1913 91.7737
lradius 58.4861
lwrist 38.4426
lhand -3.7069 28.4053
lfingers 7.12502
lthumb 22.0354 57.1699
rfemur -43.8545 -0.00363904 9.90526
rtibia 60.0957
rfoot 2.33134 3.31326
rtoes 47.9233
lfemur -45.5866 12.7555 -22.0242
ltibia 65.6655
lfoot -15.8722 -0.819012
ltoes -10.6227
1201
root 19.9452 16.085 -0.440664 -658.566 -91.6161 296.66
lowerback 11.8712 1.31153 -1.15932
upperback 12.8857 0.825621 -0.8493
thorax 7.01365 0.00145942 -0.340966
lowerneck -16.5436 -2.86859 -4.89301
upperneck 0.982113 -3.19621 3.43606
head 3.43399 -1.52484 1.77552
rclavicle -4.02539e-015 1.58034e-014
rhumerus -42.3264 29.3295 -93.0888
rradius 58.0951
rwrist -16.9544
rhand -16.9904 32.9839
rfingers 7.12502
rthumb 9.24463 3.20652
lclavicle -4.02539e-015 1.58034e-014
lhumerus -39.307 -30.1506 91.7559
lradius 58.501
lwrist 38.4553
lhand -3.54839 28.4019
lfingers 7.12502
lthumb 22.1876 57.1485
rfemur -43.5459 0.114387 9.95251
rtibia 60.2009
rfoot 2.14738 3.28237
rtoes 47.9412
lfemur -45.2329 12.9158 -21.9826
ltibia 65.697
lfoot -15.8975 -0.762803
ltoes -10.384
1202
root 19.965 16.0788 -0.442934 -659.78 -91.6394 297.486
lowerback 11.8686 1.31063 -1.12126
upperback 12.8633 0.829581 -0.859636
thorax 6.99065 0.00788659 -0.373118
lowerneck -16.9462 -2.87104 -4.86167
upperneck 1.86243 -3.18815 3.49595
head 3.37196 -1.50307 1.60611
rclavicle -1.07841e-014 -2.8625e-014
rhumerus -42.4123 29.2817 -93.1259
rradius 58.174
rwrist -17.2104
rhand -16.7287 32.8828
rfingers 7.12502
rthumb 9.49714 3.11677
lclavicle -1.07841e-014 -2.8625e-014
lhumerus -39.3984 -30.0942 91.7481
lradius 58.5044
lwrist 38.4586
lhand -3.37818 28.3966
lfingers 7.12502
lthumb 22.351 57.1237
rfemur -43.2597 0.207022 9.98711
rtibia 60.306
rfoot 1.96668 3.24372
rtoes 47.9433
lfemur -44.9041 13.0657 -21.956
ltibia 65.7371
lfoot -15.9303 -0.729882
ltoes -9.86523
1203
root 19.9856 16.0713 -0.445049 -659.934 -91.6621 297.279
lowerback 11.8673 1.30079 -1.10649
upperback 12.8265 0.821523 -0.863481
thorax 6.95016 0.00687296 -0.384577
lowerneck -17.149 -2.86607 -4.85803
upperneck 2.32285 -3.16707 3.43045
head 3.54257 -1.49134 1.58272
rclavicle -6.21202e-015 -1.92821e-014
rhumerus -42.4997 29.2262 -93.1507
rradius 58.2399
rwrist -17.4731
rhand -16.458 32.7888
rfingers 7.12502
rthumb 9.75834 3.03491
lclavicle -6.21202e-015 -1.92821e-014
lhumerus -39.4873 -30.0145 91.7507
lradius 58.4972
lwrist 38.4549
lhand -3.16921 28.4106
lfingers 7.12502
lthumb 22.5516 57.1135
rfemur -43.0044 0.257573 10.0088
rtibia 60.412
rfoot 1.76594 3.20409
rtoes 47.912
lfemur -44.6166 13.1827 -21.9497
ltibia 65.7842
lfoot -15.9604 -0.682711
ltoes -9.32897
1204
root 20.0068 16.0626 -0.447397 -659.151 -91.6848 296.156
lowerback 11.8652 1.28233 -1.11393
upperback 12.7743 0.802279 -0.865914
thorax 6.89244 -0.000769654 -0.381319
lowerneck -17.3503 -2.86183 -4.85145
upperneck 2.80493 -3.14701 3.36113
head 3.72002 -1.4805 1.55763
rclavicle -9.93923e-015 1.51076e-014
rhumerus -42.5898 29.1614 -93.1817
rradius 58.2725
rwrist -17.7272
rhand -16.1952 32.7476
rfingers 7.12502
rthumb 10.0118 3.0057
lclavicle -9.93923e-015 1.51076e-014
lhumerus -39.5872 -29.9186 91.7544
lradius 58.4841
lwrist 38.4417
lhand -2.91681 28.4279
lfingers 7.12502
lthumb 22.7938 57.1012
rfemur -42.7776 0.268974 10.0255
rtibia 60.5203
rfoot 1.51976 3.17819
rtoes 47.8487
lfemur -44.3612 13.2709 -21.964
ltibia 65.8289
lfoot -15.9853 -0.587263
ltoes -9.09562
1205
root 20.0276 16.0534 -0.450163 -658.005 -91.7059 294.684
lowerback 11.8595 1.25944 -1.1335
upperback 12.7095 0.777728 -0.865944
thorax 6.8224 -0.0114652 -0.368263
lowerneck -17.5623 -2.86247 -4.84899
upperneck 3.33078 -3.13153 3.28907
head 3.91336 -1.47222 1.53179
rclavicle 6.4605e-015 1.38155e-014
rhumerus -42.6856 29.0853 -93.2208
rradius 58.2727
rwrist -17.9486
rhand -15.9281 32.7506
rfingers 7.12502
rthumb 10.2696 3.02136
lclavicle 6.4605e-015 1.38155e-014
lhumerus -39.7055 -29.8163 91.7624
lradius 58.4661
lwrist 38.4195
lhand -2.64524 28.4187
lfingers 7.12502
lthumb 23.0544 57.0597
rfemur -42.5707 0.245444 10.0599
rtibia 60.6319
rfoot 1.21559 3.18344
rtoes 47.7778
lfemur -44.1194 13.3488 -21.9852
ltibia 65.8638
lfoot -16.0009 -0.440906
ltoes -9.31412
1206
root 20.048 16.0447 -0.453205 -656.844 -91.7239 293.199
lowerback 11.8538 1.23706 -1.15581
upperback 12.6417 0.753659 -0.85739
thorax 6.74887 -0.0223732 -0.344585
lowerneck -17.7817 -2.86869 -4.86596
upperneck 3.88408 -3.11836 3.21413
head 4.11727 -1.4659 1.50786
rclavicle -7.65321e-015 -1.56046e-014
rhumerus -42.7758 28.9949 -93.2416
rradius 58.2578
rwrist -18.1084
rhand -15.6398 32.7537
rfingers 7.12502
rthumb 10.5476 3.03834
lclavicle -7.65321e-015 -1.56046e-014
lhumerus -39.823 -29.7145 91.7844
lradius 58.4369
lwrist 38.3913
lhand -2.38795 28.3707
lfingers 7.12502
lthumb 23.3013 56.9806
rfemur -42.3711 0.180839 10.128
rtibia 60.7475
rfoot 0.854646 3.21735
rtoes 47.7325
lfemur -43.873 13.4315 -22.0017
ltibia 65.8869
lfoot -15.9943 -0.277201
ltoes -9.84162
1207
root 20.0682 16.0371 -0.456081 -655.707 -91.7481 291.731
lowerback 11.8485 1.21967 -1.17713
upperback 12.5856 0.734945 -0.844554
thorax 6.68821 -0.0312842 -0.317374
lowerneck -17.9871 -2.87486 -4.90179
upperneck 4.41989 -3.10141 3.14184
head 4.3144 -1.45869 1.48841
rclavicle 1.16786e-014 -2.82274e-014
rhumerus -42.8378 28.8799 -93.2255
rradius 58.2408
rwrist -18.1825
rhand -15.3447 32.7321
rfingers 7.12502
rthumb 10.8323 3.03143
lclavicle 1.16786e-014 -2.82274e-014
lhumerus -39.9103 -29.6195 91.813
lradius 58.393
lwrist 38.3609
lhand -2.16276 28.3085
lfingers 7.12502
lthumb 23.5173 56.8908
rfemur -42.1684 0.0695504 10.2217
rtibia 60.8689
rfoot 0.445902 3.25902
rtoes 47.7173
lfemur -43.6082 13.5229 -22.0186
ltibia 65.8997
lfoot -15.9603 -0.138251
ltoes -10.3658
1208
root 20.0884 16.0306 -0.458393 -654.61 -91.7917 290.291
lowerback 11.8359 1.20952 -1.20262
upperback 12.5542 0.723523 -0.836372
thorax 6.65944 -0.0378541 -0.293416
lowerneck -18.1658 -2.87363 -4.94613
upperneck 4.9091 -3.07488 3.08428
head 4.49347 -1.44697 1.47635
rclavicle -7.95139e-016 -1.58034e-014
rhumerus -42.8575 28.7315 -93.1732
rradius 58.2321
rwrist -18.1717
rhand -15.0548 32.6601
rfingers 7.12502
rthumb 11.1119 2.97431
lclavicle -7.95139e-016 -1.58034e-014
lhumerus -39.9475 -29.5287 91.83
lradius 58.3418
lwrist 38.335
lhand -1.96074 28.2906
lfingers 7.12502
lthumb 23.711 56.848
rfemur -41.9599 -0.0796613 10.3194
rtibia 60.9983
rfoot -0.00387373 3.28945
rtoes 47.6944
lfemur -43.3177 13.617 -22.046
ltibia 65.9037
lfoot -15.9084 -0.0478451
ltoes -10.6287
1209
root 20.1083 16.0253 -0.460008 -653.599 -91.8561 288.924
lowerback 11.814 1.20571 -1.22906
upperback 12.5486 0.718647 -0.839277
thorax 6.66485 -0.0419615 -0.281239
lowerneck -18.3276 -2.86487 -4.9828
upperneck 5.36284 -3.0421 3.04249
head 4.65928 -1.4317 1.46904
rclavicle 5.36719e-015 -1.08338e-014
rhumerus -42.8486 28.544 -93.1028
rradius 58.2371
rwrist -18.1101
rhand -14.7741 32.5197
rfingers 7.12502
rthumb 11.3827 2.84864
lclavicle 5.36719e-015 -1.08338e-014
lhumerus -39.942 -29.4383 91.8224
lradius 58.2984
lwrist 38.3214
lhand -1.76106 28.3698
lfingers 7.12502
lthumb 23.9025 56.9023
rfemur -41.7457 -0.249278 10.4086
rtibia 61.1367
rfoot -0.498273 3.29976
rtoes 47.6229
lfemur -42.9973 13.7044 -22.0831
ltibia 65.8969
lfoot -15.8526 -0.00373883
ltoes -10.5825
1210
root 20.1276 16.021 -0.461132 -652.634 -91.9257 287.595
lowerback 11.7874 1.20538 -1.23728
upperback 12.5555 0.719112 -0.856192
thorax 6.68733 -0.0418611 -0.294448
lowerneck -18.4897 -2.85465 -4.98664
upperneck 5.81917 -3.01453 2.99738
head 4.82609 -1.41884 1.45513
rclavicle 3.926e-015 -9.93923e-016
rhumerus -42.8431 28.3095 -93.0443
rradius 58.2512
rwrist -18.0478
rhand -14.52 32.3201
rfingers 7.12502
rthumb 11.6276 2.66276
lclavicle 3.926e-015 -9.93923e-016
lhumerus -39.9249 -29.3577 91.7893
lradius 58.2728
lwrist 38.3228
lhand -1.55377 28.5548
lfingers 7.12502
lthumb 24.1013 57.0611
rfemur -41.5283 -0.431823 10.4999
rtibia 61.2816
rfoot -1.04686 3.3033
rtoes 47.49
lfemur -42.6537 13.778 -22.1164
ltibia 65.8786
lfoot -15.8051 0.0159282
ltoes -10.3897
1211
root 20.1464 16.0168 -0.462204 -651.602 -91.9795 286.203
lowerback 11.7596 1.20464 -1.21811
upperback 12.5576 0.721732 -0.877993
thorax 6.70553 -0.0379247 -0.328159
lowerneck -18.6608 -2.84441 -4.94009
upperneck 6.31036 -2.99462 2.91743
head 5.00477 -1.4111 1.42139
rclavicle 3.47873e-016 -1.63003e-014
rhumerus -42.8651 28.0332 -93.0085
rradius 58.2695
rwrist -18.0245
rhand -14.2937 32.0687
rfingers 7.12502
rthumb 11.8459 2.42376
lclavicle 3.47873e-016 -1.63003e-014
lhumerus -39.9248 -29.2896 91.7497
lradius 58.2591
lwrist 38.331
lhand -1.34386 28.7987
lfingers 7.12502
lthumb 24.3026 57.2781
rfemur -41.3151 -0.633115 10.617
rtibia 61.4273
rfoot -1.65165 3.32759
rtoes 47.3116
lfemur -42.3079 13.837 -22.1297
ltibia 65.8542
lfoot -15.7762 0.0340501
ltoes -10.2564
1212
root 20.1647 16.0119 -0.463523 -650.456 -92.0112 284.713
lowerback 11.7312 1.20035 -1.18774
upperback 12.5449 0.721609 -0.889728
thorax 6.70749 -0.0341256 -0.357146
lowerneck -18.8431 -2.82762 -4.84643
upperneck 6.84452 -2.97022 2.77992
head 5.19755 -1.40431 1.36216
rclavicle -1.56543e-015 4.37326e-015
rhumerus -42.9156 27.7464 -92.9796
rradius 58.2914
rwrist -18.0592
rhand -14.0615 31.7853
rfingers 7.12502
rthumb 12.0698 2.15344
lclavicle -1.56543e-015 4.37326e-015
lhumerus -39.947 -29.2131 91.7285
lradius 58.2344
lwrist 38.3316
lhand -1.14332 29.0148
lfingers 7.12502
lthumb 24.4948 57.4684
rfemur -41.1115 -0.860849 10.7712
rtibia 61.5665
rfoot -2.30473 3.37963
rtoes 47.1235
lfemur -41.9789 13.8876 -22.1205
ltibia 65.8324
lfoot -15.7792 0.057814
ltoes -10.2934
1213
root 20.1825 16.0059 -0.465096 -649.372 -92.0317 283.304
lowerback 11.6986 1.19385 -1.16607
upperback 12.5206 0.718822 -0.886926
thorax 6.69827 -0.0324166 -0.365611
lowerneck -19.0474 -2.80157 -4.73617
upperneck 7.42076 -2.93228 2.608
head 5.40663 -1.39338 1.29035
rclavicle 5.96354e-016 2.43511e-015
rhumerus -42.9746 27.4772 -92.9394
rradius 58.3188
rwrist -18.1524
rhand -13.7934 31.5249
rfingers 7.12502
rthumb 12.3283 1.90838
lclavicle 5.96354e-016 2.43511e-015
lhumerus -39.9737 -29.1123 91.7279
lradius 58.1792
lwrist 38.3172
lhand -0.965389 29.1392
lfingers 7.12502
lthumb 24.6654 57.5696
rfemur -40.9209 -1.11578 10.9582
rtibia 61.6938
rfoot -2.99845 3.43959
rtoes 46.9526
lfemur -41.6755 13.9385 -22.0982
ltibia 65.8203
lfoot -15.825 0.0779203
ltoes -10.5019
